<svg width="212" height="87" viewBox="0 0 212 87" fill="none" xmlns="http://www.w3.org/2000/svg">
<g clip-path="url(#clip0)">
<path d="M161.034 83.216H173.007V82.0126H161.034V83.216Z" stroke="#0066FF" stroke-miterlimit="10"/>
<path d="M170.552 82.0126H163.488L165.883 70.0981H168.198L170.552 82.0126Z" stroke="#0066FF" stroke-miterlimit="10"/>
<path d="M164.749 75.6967H169.299L169.686 77.6692H164.354L164.749 75.6967Z" fill="#F7C9D7" stroke="#0066FF" stroke-miterlimit="10" stroke-linecap="round" stroke-linejoin="round"/>
<path d="M196.154 86.8019H211.799V85.2279H196.154V86.8019Z" stroke="#0066FF" stroke-miterlimit="10"/>
<path d="M208.59 85.2319H199.363L202.492 69.6633H205.517L208.59 85.2319Z" stroke="#0066FF" stroke-miterlimit="10"/>
<path d="M201.011 76.9794H206.954L207.461 79.5576H200.496L201.011 76.9794Z" fill="#F7C9D7" stroke="#0066FF" stroke-miterlimit="10" stroke-linecap="round" stroke-linejoin="round"/>
<path d="M69.4172 52.1729L74.4099 49.8776H64.8316L59.8389 52.1729H69.4172Z" stroke="#0066FF" stroke-miterlimit="10" stroke-linecap="round" stroke-linejoin="round"/>
<path d="M59.8348 1.05198L64.8275 2.64589V49.8777L59.8348 52.1729V1.05198Z" stroke="#0066FF" stroke-miterlimit="10" stroke-linecap="round" stroke-linejoin="round"/>
<path d="M46.2536 24.1678L46.7246 18.868L22.7748 52.1689L27.7675 49.8737L46.2536 24.1678Z" stroke="#0066FF" stroke-miterlimit="10" stroke-linecap="round" stroke-linejoin="round"/>
<path d="M46.1538 49.8776V52.1729H22.7787L27.7714 49.8776H46.1538Z" stroke="#0066FF" stroke-miterlimit="10" stroke-linecap="round" stroke-linejoin="round"/>
<path d="M59.8348 83.7125L64.8275 81.4133V64.0715H59.8348V83.7125Z" stroke="#0066FF" stroke-miterlimit="10" stroke-linecap="round" stroke-linejoin="round"/>
<path d="M74.4099 49.8776L69.4172 52.1729V61.051C69.4252 61.4654 69.3533 61.8719 69.1977 62.2544C69.066 62.5413 68.9023 62.8123 68.7068 63.0593C69.9599 62.5852 71.2131 62.111 72.4663 61.6368C72.6219 61.5611 72.7815 61.4814 72.9372 61.4096C73.7753 60.8916 74.3221 60.011 74.4139 59.0307L74.4099 49.8776Z" stroke="#0066FF" stroke-miterlimit="10" stroke-linecap="round" stroke-linejoin="round"/>
<path d="M120.098 4.26373C122.709 5.94133 125.019 8.03733 126.943 10.472C130.83 15.2897 132.323 20.0156 133.384 23.6219C134.941 28.9176 135.719 35.1698 135.719 42.3783C135.719 49.5868 134.941 55.8509 133.384 61.1666C131.824 66.4783 129.677 70.8735 126.943 74.3443C124.373 77.6676 121.036 80.3215 117.221 82.0867C116.878 82.2461 125.051 78.2773 125.051 78.2773C127.737 77.0739 131.592 72.4714 131.592 72.4714C135.927 66.4584 138.756 59.497 139.85 52.1689C140.377 49.272 141.071 42.6652 140.492 33.7273C139.914 24.7894 135.388 16.5688 135.388 16.5688C135.388 16.5688 131.006 8.18477 124.305 4.41914C124.006 4.24779 123.571 4.01269 123.036 3.76165C121.902 3.23964 120.721 2.8292 119.508 2.53831C116.503 1.77323 113.246 1.19943 112.372 1.048C115.106 1.69753 117.716 2.78139 120.098 4.26373Z" stroke="#0066FF" stroke-miterlimit="10" stroke-linecap="round" stroke-linejoin="round"/>
<path d="M178.53 24.3391L179.001 19.0353L155.051 52.3402L160.044 50.041L178.53 24.3391Z" stroke="#0066FF" stroke-miterlimit="10" stroke-linecap="round" stroke-linejoin="round"/>
<path d="M178.43 50.045V52.3443H155.051L160.044 50.045H178.43Z" stroke="#0066FF" stroke-miterlimit="10" stroke-linecap="round" stroke-linejoin="round"/>
<path d="M110.101 69.5187C108.261 69.5147 106.453 69.0684 104.829 68.2117C103.137 67.339 101.632 65.8009 100.323 63.6013C99.0141 61.4017 97.9565 58.4011 97.1583 54.6076C96.3601 50.8141 95.961 45.9726 95.961 40.091C95.961 34.2453 96.3601 29.4277 97.1583 25.6302C97.9565 21.8327 99.0101 18.8361 100.323 16.6365C101.062 15.3454 102.007 14.1819 103.117 13.1936C101.971 13.4048 100.866 13.7874 99.8323 14.3253C98.1401 15.198 96.6355 16.7361 95.3265 18.9397C94.0174 21.1433 92.9598 24.1399 92.1616 27.9334C91.3635 31.7269 90.9644 36.5485 90.9644 42.3942C90.9644 48.2758 91.3635 53.1173 92.1616 56.9108C92.9598 60.7043 94.0134 63.7049 95.3265 65.9045C96.6355 68.1081 98.1401 69.6462 99.8323 70.5189C101.457 71.3756 103.268 71.8259 105.104 71.8259C106.96 71.8179 108.788 71.3716 110.436 70.5189C111.071 70.1961 111.665 69.7937 112.208 69.3314C111.514 69.451 110.807 69.5147 110.101 69.5187Z" stroke="#0066FF" stroke-miterlimit="10" stroke-linecap="round" stroke-linejoin="round"/>
<path d="M135.727 42.3823C135.727 49.5908 134.949 55.8548 133.392 61.1706C131.836 66.4863 129.689 70.8775 126.951 74.3483C124.389 77.6796 121.052 80.3374 117.229 82.0907C109.514 85.4698 100.738 85.4698 93.0238 82.0907C89.2244 80.3414 85.9119 77.6835 83.3896 74.3483C80.6877 70.8775 78.5685 66.4823 77.032 61.1706C75.4954 55.8588 74.7252 49.5947 74.7212 42.3823C74.7212 35.1738 75.4914 28.9176 77.032 23.6258C78.5725 18.33 80.6917 13.9468 83.3896 10.476C85.9119 7.14075 89.2244 4.48289 93.0238 2.73357C100.738 -0.645536 109.514 -0.645536 117.229 2.73357C121.052 4.48688 124.389 7.14474 126.951 10.476C129.689 13.9508 131.836 18.334 133.392 23.6258C134.949 28.9176 135.727 35.1698 135.727 42.3823ZM119.476 42.3823C119.476 36.5366 119.069 31.719 118.251 27.9214C117.432 24.1239 116.359 21.1274 115.03 18.9278C113.701 16.7282 112.168 15.19 110.44 14.3134C108.792 13.4606 106.964 13.0104 105.108 13.0064C103.273 13.0104 101.461 13.4606 99.8363 14.3134C98.1442 15.186 96.6396 16.7242 95.3305 18.9278C94.0215 21.1314 92.9639 24.1279 92.1657 27.9214C91.3675 31.715 90.9684 36.5366 90.9684 42.3823C90.9684 48.2638 91.3675 53.1053 92.1657 56.8989C92.9639 60.6924 94.0175 63.6929 95.3305 65.8925C96.6396 68.0961 98.1442 69.6343 99.8363 70.503C101.461 71.3597 103.273 71.81 105.108 71.81C106.964 71.802 108.792 71.3557 110.44 70.503C112.168 69.6303 113.701 68.0922 115.03 65.8925C116.359 63.689 117.432 60.6924 118.251 56.8989C119.065 53.1053 119.472 48.2638 119.476 42.3823Z" fill="#EEF7FD" stroke="#0066FF" stroke-miterlimit="10" stroke-linecap="round" stroke-linejoin="round"/>
<path d="M69.4172 52.1729V61.051C69.469 62.6688 68.1959 64.0237 66.5756 64.0755C66.4758 64.0795 66.38 64.0755 66.2803 64.0715H59.8388V83.7125H46.1538V64.0715H12.0032C11.0254 64.0755 10.0715 63.7567 9.29329 63.1629C8.49909 62.5931 7.95632 61.7364 7.78471 60.7721L6.13245 52.918L44.9007 1.05198H59.8388V52.1769H69.4172V52.1729ZM46.1538 52.1729V27.5787C46.1538 26.2877 46.2017 24.9129 46.2975 23.4505C46.3933 21.9881 46.537 20.4619 46.7245 18.868L22.7748 52.1689H46.1538V52.1729Z" fill="#EEF7FD" stroke="#0066FF" stroke-miterlimit="10" stroke-linecap="round" stroke-linejoin="round"/>
<path d="M201.694 52.4359V61.314C201.746 62.9318 200.472 64.2867 198.852 64.3385C198.752 64.3424 198.657 64.3385 198.557 64.3345H192.115V83.9755H178.434V64.3345H144.276C143.298 64.3385 142.344 64.0197 141.566 63.4259C140.772 62.8561 140.229 61.9994 140.057 61.0351L138.405 53.181L177.177 1.31495H192.115V52.4399H201.694V52.4359ZM178.43 52.4359V27.8457C178.43 26.5546 178.478 25.1799 178.574 23.7175C178.67 22.255 178.814 20.7289 179.001 19.135L155.051 52.4359H178.43Z" fill="#EEF7FD" stroke="#0066FF" stroke-miterlimit="10" stroke-linecap="round" stroke-linejoin="round"/>
<path d="M201.694 52.3443L206.686 50.045H197.108L192.115 52.3443H201.694Z" stroke="#0066FF" stroke-miterlimit="10" stroke-linecap="round" stroke-linejoin="round"/>
<path d="M192.115 1.31496L197.108 2.80925V50.041L192.115 52.3402V1.31496Z" stroke="#0066FF" stroke-miterlimit="10" stroke-linecap="round" stroke-linejoin="round"/>
<path d="M192.115 83.8799L197.108 81.5847V64.2389H192.115V83.8799Z" stroke="#0066FF" stroke-miterlimit="10" stroke-linecap="round" stroke-linejoin="round"/>
<path d="M206.686 50.045L201.694 52.3403V61.2184C201.702 61.6328 201.63 62.0393 201.474 62.4218C201.342 62.7087 201.179 62.9797 200.983 63.2267C202.236 62.7526 203.49 62.2784 204.743 61.8042C204.898 61.7285 205.058 61.6488 205.214 61.577C206.052 61.059 206.599 60.1784 206.69 59.1981L206.686 50.045Z" stroke="#0066FF" stroke-miterlimit="10" stroke-linecap="round" stroke-linejoin="round"/>
<path d="M22.6072 86.5473H40.7701V84.7223H22.6072V86.5473Z" stroke="#0066FF" stroke-miterlimit="10"/>
<path d="M37.0465 84.7223H26.3308L29.9626 66.6473H33.4746L37.0465 84.7223Z" stroke="#0066FF" stroke-miterlimit="10"/>
<path d="M28.2424 75.1429H35.1428L35.7335 78.1354H27.6438L28.2424 75.1429Z" fill="#F7C9D7" stroke="#0066FF" stroke-miterlimit="10" stroke-linecap="round" stroke-linejoin="round"/>
<path d="M0.397461 86.4597L22.8027 42.8621" stroke="#E53867" stroke-width="2" stroke-miterlimit="10" stroke-linecap="round" stroke-linejoin="round"/>
<path d="M19.3984 86.4597L27.995 42.8621" stroke="#E53867" stroke-width="2" stroke-miterlimit="10" stroke-linecap="round" stroke-linejoin="round"/>
<path d="M20.8871 78.9125H4.27673" stroke="#E53867" stroke-width="2" stroke-miterlimit="10" stroke-linecap="round" stroke-linejoin="round"/>
<path d="M22.232 72.0786H7.7887" stroke="#E53867" stroke-width="2" stroke-miterlimit="10" stroke-linecap="round" stroke-linejoin="round"/>
<path d="M11.3008 65.2446H23.581" stroke="#E53867" stroke-width="2" stroke-miterlimit="10" stroke-linecap="round" stroke-linejoin="round"/>
<path d="M24.938 58.351H14.8408" stroke="#E53867" stroke-width="2" stroke-miterlimit="10" stroke-linecap="round" stroke-linejoin="round"/>
<path d="M18.3248 51.5728H26.2748" stroke="#E53867" stroke-width="2" stroke-miterlimit="10" stroke-linecap="round" stroke-linejoin="round"/>
<path d="M27.6278 44.719L21.8209 44.7747" stroke="#E53867" stroke-width="2" stroke-miterlimit="10" stroke-linecap="round" stroke-linejoin="round"/>
</g>
<defs>
<clipPath id="clip0">
<rect width="212" height="87" fill="white"/>
</clipPath>
</defs>
</svg>
